<svg width="454" height="392" viewBox="0 0 454 392" fill="none" xmlns="http://www.w3.org/2000/svg">
<path d="M247.811 109.168C270.898 109.168 289.614 90.4426 289.614 67.3437C289.614 44.2449 270.898 25.5196 247.811 25.5196C224.723 25.5196 206.007 44.2449 206.007 67.3437C206.007 90.4426 224.723 109.168 247.811 109.168Z" fill="#FFC4CC"/>
<path d="M216.61 88.2558C216.61 88.2558 224.486 147.658 212.369 154.326C200.252 160.993 284.465 161.6 284.465 161.6C284.465 161.6 265.683 110.077 274.165 94.3172L216.61 88.2558Z" fill="#FFC4CC"/>
<path d="M345.957 161.9L338.954 193.807L324.145 261.313L323.702 265.01L318.591 307.809L315.191 336.241L312.912 355.34C299.052 362.466 289.007 367.386 289.007 367.386C289.007 367.386 288.143 363.052 286.751 357.507C277.024 360.425 259.026 365.265 243.774 366.232C249.328 372.425 251.88 378.244 248.418 382.538C237.97 395.483 194.834 368.364 179.746 358.252C179.395 360.673 179.262 363.121 179.348 365.566L167.803 356.682L168.945 336.241L170.873 301.655L173.294 258.282C172.531 256.424 171.891 254.519 171.378 252.577C167.843 239.996 163.551 214.874 160.259 193.807C157.61 176.853 155.62 162.526 155.2 159.477C155.143 159.079 155.114 158.874 155.114 158.874L219.028 130.618C223.57 141.157 244.78 144.325 244.78 144.325C262.352 143.114 276.126 133.843 276.126 133.843L345.957 161.9Z" fill="#EAE2B7"/>
<path d="M293.856 355.266C293.856 355.266 291.151 356.193 286.751 357.507C277.024 360.425 259.026 365.265 243.774 366.232C230.642 367.073 219.545 365.049 217.516 356.477C216.646 352.792 217.88 349.76 220.569 347.269C228.596 339.824 249.561 337.157 266.189 336.241C270.884 335.985 275.228 335.866 278.843 335.82C284.983 335.741 289.007 335.866 289.007 335.866L289.104 336.241L293.856 355.266Z" fill="#A0616A"/>
<path d="M213.034 27.7819L205.218 24.6512C205.218 24.6512 221.561 6.6496 244.299 8.21503L237.904 1.17085C237.904 1.17085 253.536 -5.09051 267.748 11.3457C275.218 19.9858 283.862 30.1418 289.25 41.5825H297.621L294.127 49.2788L306.355 56.9751L293.804 55.5927C294.552 59.8072 294.667 64.1099 294.145 68.3584C293.606 72.6082 291.439 76.4825 288.099 79.1636C288.099 79.1636 278.406 59.089 278.406 55.9582V63.785C278.406 63.785 270.59 56.7409 270.59 52.0449L266.326 57.5236L264.195 48.9141L237.904 57.5236L242.167 50.4796L225.824 52.8276L232.219 44.2181C232.219 44.2181 213.745 54.3929 213.034 63.0024C212.324 71.6118 206.916 79.7698 206.916 79.7698C206.916 79.7698 192.428 39.522 213.034 27.7819Z" fill="white"/>
<path d="M391.396 308.588C387.138 313.206 376.587 320.162 363.796 327.693C359.038 330.491 353.973 333.375 348.805 336.241C336.475 343.083 323.565 349.863 312.912 355.34C299.052 362.466 289.007 367.386 289.007 367.386C289.007 367.386 288.143 363.052 286.751 357.507C284.886 350.085 282.078 340.49 279.15 336.241C279.048 336.093 278.945 335.957 278.843 335.82C277.99 334.7 277.132 334.046 276.285 334.046L318.591 307.809L336.873 296.468L323.701 265.01L307.182 225.55L317.153 193.807L327.175 161.9H345.957C345.957 161.9 352.176 175.482 360.129 194.422C361.317 197.254 362.545 200.206 363.796 203.254C380.157 243.067 400.554 298.663 391.396 308.588Z" fill="#EAE2B7"/>
<path d="M248.418 382.538C237.97 395.483 194.834 368.364 179.746 358.252C176.461 356.051 174.505 354.657 174.505 354.657L188.308 336.241L192.679 330.411C192.679 330.411 196.59 332.487 202.372 335.866C202.582 335.991 202.792 336.116 203.008 336.241C207.994 339.17 214.253 342.998 220.569 347.269C229.283 353.167 238.095 359.896 243.774 366.232C249.328 372.425 251.88 378.244 248.418 382.538Z" fill="#A0616A"/>
<path d="M202.372 335.866C200.829 335.86 199.289 335.985 197.767 336.241C184.698 338.488 180.844 350.324 179.746 358.252C179.395 360.673 179.262 363.121 179.348 365.566L167.803 356.682L163.596 353.446C153.471 349.914 144.45 343.641 136.628 336.241C129.842 329.708 123.754 322.486 118.465 314.691C113.196 307.008 108.499 298.948 104.412 290.576C103.272 288.239 102.659 285.681 102.616 283.081C102.574 280.481 103.104 277.904 104.168 275.532L118.465 243.653L139.362 197.061C139.515 195.952 139.684 194.867 139.868 193.807C144.012 170.033 155.114 159.477 155.114 159.477H163.596L169.269 193.807L176.318 236.458L171.378 252.577L159.963 289.802L170.872 301.655L202.372 335.866Z" fill="#EAE2B7"/>
<path d="M377.269 375.599V379.051C377.271 379.999 377.095 380.938 376.752 381.821C376.599 382.215 376.414 382.595 376.2 382.959C375.523 384.097 374.561 385.039 373.41 385.693C372.259 386.347 370.958 386.69 369.634 386.69H115.782C114.458 386.69 113.157 386.347 112.006 385.693C110.855 385.039 109.893 384.097 109.216 382.959C109.001 382.595 108.817 382.215 108.664 381.821C108.32 380.938 108.145 379.999 108.147 379.051V375.599C108.147 374.596 108.344 373.602 108.728 372.676C109.111 371.749 109.673 370.907 110.382 370.197C111.091 369.488 111.933 368.925 112.86 368.541C113.786 368.158 114.779 367.96 115.782 367.961H130.414V366.351C130.414 366.309 130.422 366.268 130.438 366.229C130.454 366.19 130.478 366.155 130.507 366.126C130.537 366.096 130.572 366.073 130.611 366.057C130.649 366.041 130.691 366.032 130.732 366.033H138.367C138.409 366.032 138.45 366.041 138.489 366.057C138.528 366.073 138.563 366.096 138.592 366.126C138.622 366.155 138.645 366.19 138.661 366.229C138.677 366.268 138.685 366.309 138.685 366.351V367.961H143.455V366.351C143.455 366.309 143.463 366.268 143.479 366.229C143.495 366.19 143.518 366.155 143.548 366.126C143.578 366.096 143.613 366.073 143.651 366.057C143.69 366.041 143.731 366.032 143.773 366.033H151.408C151.45 366.032 151.491 366.041 151.53 366.057C151.568 366.073 151.604 366.096 151.633 366.126C151.663 366.155 151.686 366.19 151.702 366.229C151.718 366.268 151.726 366.309 151.726 366.351V367.961H156.501V366.351C156.501 366.309 156.51 366.268 156.526 366.229C156.542 366.19 156.565 366.155 156.595 366.126C156.624 366.096 156.659 366.073 156.698 366.057C156.737 366.041 156.778 366.032 156.82 366.033H164.454C164.496 366.032 164.538 366.041 164.576 366.057C164.615 366.073 164.65 366.096 164.68 366.126C164.709 366.155 164.733 366.19 164.749 366.229C164.765 366.268 164.773 366.309 164.773 366.351V367.961H169.542V366.351C169.542 366.309 169.55 366.268 169.566 366.229C169.582 366.19 169.606 366.155 169.635 366.126C169.665 366.096 169.7 366.073 169.739 366.057C169.777 366.041 169.819 366.032 169.861 366.033H177.495C177.537 366.032 177.578 366.041 177.617 366.057C177.656 366.073 177.691 366.096 177.72 366.126C177.75 366.155 177.774 366.19 177.789 366.229C177.805 366.268 177.814 366.309 177.814 366.351V367.961H182.583V366.351C182.583 366.309 182.591 366.268 182.607 366.229C182.623 366.19 182.647 366.155 182.676 366.126C182.706 366.096 182.741 366.073 182.78 366.057C182.818 366.041 182.86 366.032 182.901 366.033H190.536C190.578 366.032 190.619 366.041 190.658 366.057C190.697 366.073 190.732 366.096 190.761 366.126C190.791 366.155 190.814 366.19 190.83 366.229C190.846 366.268 190.854 366.309 190.854 366.351V367.961H195.63V366.351C195.63 366.309 195.638 366.268 195.654 366.229C195.67 366.19 195.693 366.155 195.723 366.126C195.752 366.096 195.787 366.073 195.826 366.057C195.865 366.041 195.906 366.032 195.948 366.033H203.583C203.624 366.032 203.666 366.041 203.704 366.057C203.743 366.073 203.778 366.096 203.808 366.126C203.837 366.155 203.861 366.19 203.877 366.229C203.893 366.268 203.901 366.309 203.901 366.351V367.961H208.67V366.351C208.67 366.309 208.679 366.268 208.695 366.229C208.71 366.19 208.734 366.155 208.764 366.126C208.793 366.096 208.828 366.073 208.867 366.057C208.906 366.041 208.947 366.032 208.989 366.033H268.792C268.834 366.032 268.876 366.041 268.914 366.057C268.953 366.073 268.988 366.096 269.018 366.126C269.047 366.155 269.071 366.19 269.087 366.229C269.103 366.268 269.111 366.309 269.111 366.351V367.961H273.886V366.351C273.886 366.309 273.894 366.268 273.91 366.229C273.926 366.19 273.949 366.155 273.979 366.126C274.009 366.096 274.044 366.073 274.082 366.057C274.121 366.041 274.162 366.032 274.204 366.033H281.839C281.923 366.033 282.004 366.067 282.063 366.127C282.123 366.186 282.156 366.267 282.157 366.351V367.961H286.927V366.351C286.927 366.309 286.935 366.268 286.951 366.229C286.967 366.19 286.99 366.155 287.02 366.126C287.049 366.096 287.085 366.073 287.123 366.057C287.162 366.041 287.203 366.032 287.245 366.033H294.88C294.922 366.032 294.963 366.041 295.002 366.057C295.04 366.073 295.075 366.096 295.105 366.126C295.135 366.155 295.158 366.19 295.174 366.229C295.19 366.268 295.198 366.309 295.198 366.351V367.961H299.968V366.351C299.968 366.309 299.976 366.268 299.992 366.229C300.008 366.19 300.031 366.155 300.061 366.126C300.09 366.096 300.125 366.073 300.164 366.057C300.203 366.041 300.244 366.032 300.286 366.033H307.921C307.962 366.032 308.004 366.041 308.043 366.057C308.081 366.073 308.116 366.096 308.146 366.126C308.175 366.155 308.199 366.19 308.215 366.229C308.231 366.268 308.239 366.309 308.239 366.351V367.961H313.014V366.351C313.014 366.309 313.022 366.268 313.038 366.229C313.054 366.19 313.078 366.155 313.107 366.126C313.137 366.096 313.172 366.073 313.211 366.057C313.249 366.041 313.291 366.032 313.333 366.033H320.967C321.051 366.034 321.13 366.068 321.189 366.127C321.248 366.187 321.28 366.267 321.28 366.351V367.961H326.055V366.351C326.055 366.309 326.063 366.268 326.079 366.229C326.095 366.19 326.118 366.155 326.148 366.126C326.178 366.096 326.213 366.073 326.251 366.057C326.29 366.041 326.331 366.032 326.373 366.033H334.008C334.05 366.032 334.091 366.041 334.13 366.057C334.169 366.073 334.204 366.096 334.233 366.126C334.263 366.155 334.286 366.19 334.302 366.229C334.318 366.268 334.326 366.309 334.326 366.351V367.961H339.096V366.351C339.096 366.309 339.104 366.268 339.12 366.229C339.136 366.19 339.159 366.155 339.189 366.126C339.218 366.096 339.254 366.073 339.292 366.057C339.331 366.041 339.372 366.032 339.414 366.033H347.049C347.091 366.032 347.132 366.041 347.171 366.057C347.209 366.073 347.244 366.096 347.274 366.126C347.304 366.155 347.327 366.19 347.343 366.229C347.359 366.268 347.367 366.309 347.367 366.351V367.961H369.634C370.637 367.96 371.63 368.158 372.556 368.541C373.483 368.925 374.324 369.488 375.033 370.197C375.742 370.907 376.305 371.749 376.688 372.676C377.072 373.602 377.269 374.596 377.269 375.599Z" fill="#3F3D56"/>
<path d="M451.085 381.821H34.3929V382.959H451.085V381.821Z" fill="#3F3D56"/>
<path d="M356.829 230.208H262.21V228.257H219.306V230.208H124.298C122.6 230.208 120.972 230.883 119.772 232.084C118.572 233.284 117.897 234.913 117.897 236.611V366.238C117.897 367.936 118.572 369.565 119.772 370.766C120.972 371.966 122.6 372.641 124.298 372.641H356.829C358.526 372.641 360.154 371.966 361.355 370.766C362.555 369.565 363.229 367.936 363.229 366.238V236.611C363.229 235.771 363.064 234.938 362.742 234.161C362.42 233.384 361.949 232.678 361.355 232.084C360.76 231.489 360.055 231.017 359.278 230.695C358.502 230.374 357.669 230.208 356.829 230.208Z" fill="#3F3D56"/>
<path d="M240.749 289.683C248.598 289.683 254.961 283.317 254.961 275.464C254.961 267.611 248.598 261.245 240.749 261.245C232.9 261.245 226.538 267.611 226.538 275.464C226.538 283.317 232.9 289.683 240.749 289.683Z" stroke="#D0CDE1" stroke-width="2" stroke-miterlimit="10"/>
<path d="M236.202 294.801C244.051 294.801 250.414 288.435 250.414 280.583C250.414 272.73 244.051 266.364 236.202 266.364C228.353 266.364 221.99 272.73 221.99 280.583C221.99 288.435 228.353 294.801 236.202 294.801Z" fill="#F77F00"/>
<path d="M61.6489 376.075H45.7316V392H61.6489V376.075Z" fill="#D0CDE1"/>
<path d="M51.9871 363.562V382.9H71.3153V363.562H51.9871ZM70.4739 382.058H52.8228V364.404H70.4739V382.058Z" fill="#3F3D56"/>
<path d="M430.021 376.075H414.104V392H430.021V376.075Z" fill="#D0CDE1"/>
<path d="M420.359 363.562V382.9H439.687V363.562H420.359ZM438.846 382.058H421.195V364.404H438.846V382.058Z" fill="#3F3D56"/>
<path d="M69.4842 32.1291C65.4004 31.6094 61.2672 31.6094 57.1834 32.1291C48.0852 33.3243 39.5207 37.1056 32.5061 43.0245C25.4915 48.9434 20.3213 56.7513 17.6089 65.5218C16.3752 69.5188 15.6767 73.6618 15.5314 77.8425C15.5109 78.4236 15.4972 79.0116 15.4972 79.5996C15.5099 92.2891 20.5539 104.455 29.5222 113.428C38.4906 122.401 50.6506 127.447 63.3338 127.46C64.352 127.46 65.3703 127.426 66.3748 127.364C68.733 127.216 71.0767 126.892 73.3863 126.393C84.4158 124.02 94.2523 117.824 101.159 108.899C108.065 99.9737 111.596 88.8939 111.129 77.6164C110.663 66.3389 106.227 55.5892 98.6072 47.266C90.987 38.9427 80.6721 33.5815 69.4842 32.1291H69.4842ZM78.3066 123.617H78.2998C74.4472 124.933 70.4372 125.73 66.3748 125.99C65.3702 126.058 64.352 126.092 63.3338 126.092C51.0138 126.077 39.2028 121.174 30.4913 112.458C21.7797 103.743 16.879 91.9257 16.8639 79.5996C16.8639 79.0116 16.8776 78.4236 16.8981 77.8425C17.3679 65.8301 22.4638 54.4651 31.1191 46.1267C39.7744 37.7882 51.3181 33.1227 63.3338 33.1068C74.3431 33.1074 84.9946 37.0184 93.3908 44.1431C101.787 51.2677 107.382 61.1432 109.18 72.0101C110.978 82.877 108.861 94.0296 103.207 103.481C97.5527 112.932 88.7286 120.068 78.3066 123.617H78.3066Z" fill="white"/>
<path d="M64.0172 35.8417H62.6504V45.4137H64.0172V35.8417Z" fill="white"/>
<path d="M32.8908 48.1746L31.9243 49.1415L38.6894 55.91L39.6559 54.9431L32.8908 48.1746Z" fill="white"/>
<path d="M19.5975 78.9159V80.2833H29.1648V78.9159H19.5975Z" fill="white"/>
<path d="M31.9243 110.058L32.8907 111.025L39.6559 104.256L38.6894 103.289L31.9243 110.058Z" fill="white"/>
<path d="M87.0117 54.943L87.9781 55.91L94.7433 49.1415L93.7768 48.1746L87.0117 54.943Z" fill="white"/>
<path d="M97.5028 78.9159V80.2833H107.07V78.9159H97.5028Z" fill="white"/>
<path d="M87.9781 103.289L87.0117 104.256L93.7768 111.025L94.7432 110.058L87.9781 103.289Z" fill="white"/>
<path d="M64.0172 113.786H62.6504V123.358H64.0172V113.786Z" fill="white"/>
<path d="M65.3839 76.8647C64.7925 76.4209 64.0731 76.181 63.3338 76.181C62.5945 76.181 61.8751 76.4209 61.2836 76.8647C60.8787 77.1725 60.5453 77.5643 60.3064 78.0134C60.0037 78.5916 59.8727 79.2445 59.929 79.8948C59.9853 80.5452 60.2265 81.1658 60.6242 81.6833C61.0218 82.2009 61.5592 82.5937 62.1728 82.8154C62.7865 83.0371 63.4508 83.0784 64.0871 82.9345C64.7235 82.7905 65.3054 82.4673 65.764 82.003C66.2226 81.5387 66.5388 80.9528 66.6752 80.3144C66.8116 79.6761 66.7625 79.012 66.5336 78.4007C66.3048 77.7894 65.9059 77.2564 65.3839 76.8647H65.3839ZM63.3338 81.6508C62.7905 81.6492 62.27 81.4326 61.8859 81.0482C61.5017 80.6639 61.2852 80.1431 61.2836 79.5996C61.2863 79.1848 61.4124 78.7801 61.6458 78.4373C61.8461 78.1471 62.1177 77.9136 62.4346 77.7592C62.7514 77.6049 63.1028 77.5349 63.4545 77.5562C63.8063 77.5774 64.1467 77.6891 64.4427 77.8804C64.7387 78.0717 64.9804 78.3362 65.1443 78.6483C65.3082 78.9605 65.3889 79.3096 65.3785 79.662C65.3681 80.0145 65.267 80.3583 65.085 80.6602C64.9029 80.9621 64.6461 81.2119 64.3393 81.3854C64.0325 81.5589 63.6862 81.6503 63.3338 81.6508V81.6508Z" fill="white"/>
<path d="M69.4842 20.1161H57.1833V32.4231H69.4842V20.1161Z" fill="white"/>
<path d="M63.3338 22.1673C72.3919 22.1673 79.7349 19.5653 79.7349 16.3557C79.7349 13.146 72.3919 10.5441 63.3338 10.5441C54.2757 10.5441 46.9326 13.146 46.9326 16.3557C46.9326 19.5653 54.2757 22.1673 63.3338 22.1673Z" fill="white"/>
<path d="M65.3839 53.6183H61.2836V76.8648H65.3839V53.6183Z" fill="white"/>
<path d="M128.475 125.377H0V126.744H128.475V125.377Z" fill="white"/>
<path d="M85.6088 341.114C86.1392 359.286 75.5268 365.945 62.2086 366.335C61.8992 366.344 61.5912 366.349 61.2846 366.351C60.667 366.356 60.0554 366.346 59.4497 366.32C47.4047 365.82 37.8703 359.423 37.377 342.523C36.8665 325.034 58.5635 302.311 60.1914 300.63L60.1943 300.628C60.2561 300.564 60.2878 300.532 60.2878 300.532C60.2878 300.532 85.0784 322.944 85.6088 341.114Z" fill="#3F9561"/>
<path d="M61.2497 363.581L69.7099 350.993L61.267 364.935L61.2846 366.351C60.667 366.356 60.0554 366.346 59.4497 366.32L59.8693 348.113L59.8578 347.973L59.8733 347.946L59.9135 346.225L50.6485 332.767L59.9025 344.938L59.9354 345.301L60.2523 331.545L52.2499 317.592L60.2751 329.129L60.1913 300.63L60.1915 300.535L60.1942 300.628L60.7255 323.089L68.0187 313.966L60.7493 325.024L60.9085 337.329L67.6198 325.32L60.9332 339.138L61.0218 345.98L70.7818 329.252L61.0515 348.366L61.2497 363.581Z" fill="#3F3D56"/>
<path d="M453.981 341.114C454.511 359.286 443.899 365.945 430.581 366.335C430.271 366.344 429.963 366.349 429.657 366.351C429.039 366.356 428.427 366.346 427.822 366.32C415.777 365.82 406.242 359.423 405.749 342.523C405.239 325.034 426.936 302.311 428.563 300.63L428.566 300.628C428.628 300.564 428.66 300.532 428.66 300.532C428.66 300.532 453.45 322.944 453.981 341.114Z" fill="#3F9561"/>
<path d="M429.622 363.581L438.082 350.993L429.639 364.935L429.657 366.351C429.039 366.356 428.427 366.346 427.822 366.32L428.241 348.113L428.23 347.973L428.245 347.946L428.286 346.225L419.021 332.767L428.275 344.938L428.308 345.301L428.624 331.545L420.622 317.592L428.647 329.129L428.563 300.63L428.564 300.535L428.566 300.628L429.098 323.089L436.391 313.966L429.121 325.024L429.281 337.329L435.992 325.32L429.305 339.138L429.394 345.98L439.154 329.252L429.424 348.366L429.622 363.581Z" fill="#3F3D56"/>
</svg>
